<?xml version="1.0" encoding="UTF-8"?>
<svg id="Layer_2" data-name="Layer 2" xmlns="http://www.w3.org/2000/svg" viewBox="0 0 62.88 62.23">
  <defs>
    <style>
      .cls-1 {
        fill: #fff;
      }
    </style>
  </defs>
  <g id="Layer_1-2" data-name="Layer 1">
    <path class="cls-1" d="M26.29,62.22C15.3,61.34,1.54,50.92,.12,34.31-1.51,15.23,13.47,.13,31.11,0c17.35-.12,31.99,13.56,31.77,31.67-.23,19.21-15.3,29.55-26.3,30.56-.04-.53-.1-1.06-.1-1.58,0-6.09,.03-12.17-.03-18.26-.01-1.32,.34-1.86,1.74-1.75,1.51,.12,3.04,.08,4.56,0,.43-.02,1.16-.38,1.22-.68,.5-2.76,.89-5.55,1.35-8.65-2.43,0-4.64-.09-6.84,.03-1.53,.08-2.18-.33-2.03-1.95,.15-1.62-.01-3.26,.16-4.88,.22-2.11,1.32-3.26,3.4-3.55,1.76-.25,3.55-.28,5.55-.42,0-2.39,.04-4.77-.04-7.14-.01-.3-.61-.8-.97-.85-3.5-.4-7.03-.87-10.49,.23-4.38,1.39-7.34,5.2-7.55,9.8-.11,2.44-.08,4.89-.04,7.33,.02,1.04-.27,1.47-1.38,1.42-1.74-.08-3.48,.02-5.22-.03-1.07-.03-1.58,.26-1.54,1.46,.08,2.54,.02,5.09,.02,7.92,2.31,0,4.52,.03,6.72-.01,.91-.02,1.4,.15,1.4,1.23-.04,6.52-.02,13.04-.03,19.57,0,.26-.09,.52-.14,.77Z"/>
  </g>
</svg>