<?xml version="1.0" encoding="UTF-8"?>
<svg id="Layer_2" data-name="Layer 2" xmlns="http://www.w3.org/2000/svg" viewBox="0 0 62.34 62.34">
  <defs>
    <style>
      .cls-1 {
        fill: #fff;
      }
    </style>
  </defs>
  <g id="Layer_1-2" data-name="Layer 1">
    <path class="cls-1" d="M31.11,0c17.26-.02,31.2,13.86,31.23,31.08,.03,17.32-13.87,31.26-31.17,31.26C13.92,62.34,0,48.44,0,31.2,0,13.94,13.88,.02,31.11,0Zm11.55,27.9c-3.19,0-6.38,.03-9.56-.02-1.02-.02-1.44,.24-1.39,1.33,.08,1.71,.08,3.43,0,5.14-.05,1.09,.38,1.35,1.39,1.33,3.43-.05,6.85-.02,10.28-.02,1.64,0,1.73,.12,1.2,1.69-1.74,5.18-6.37,8.46-12.26,8.67-9.32,.33-16.52-7.8-15.07-17.21,1.76-11.38,14.88-16.05,22.83-9.58,.65,.53,1.04,.44,1.58-.11,1.35-1.36,2.76-2.65,4.14-3.98,1.31-1.27,1.31-1.27-.11-2.39-.13-.1-.26-.19-.38-.29-10.01-7.34-24.12-5.44-31.83,4.29-6.48,8.18-6.73,20-.51,28.1,5.86,7.63,13.72,10.62,23.09,9.08,13.42-2.21,18.9-14.11,17.56-25.11-.1-.8-.47-.96-1.18-.96-3.27,.02-6.54,.01-9.8,0Z"/>
  </g>
</svg>