<?xml version="1.0" encoding="UTF-8"?>
<svg id="Layer_2" data-name="Layer 2" xmlns="http://www.w3.org/2000/svg" viewBox="0 0 62.36 62.34">
  <defs>
    <style>
      .cls-1 {
        fill: #fff;
      }
    </style>
  </defs>
  <g id="Layer_1-2" data-name="Layer 1">
    <g>
      <path class="cls-1" d="M31.27,0c16.93-.07,31.41,14.02,31.08,31.84-.31,16.6-14.23,30.85-31.89,30.49C13.84,61.99-.14,48.12,0,30.88,.14,13.99,14.04-.12,31.27,0Zm-.12,10.44s0-.01,0-.02c-2.82,0-5.65,0-8.47,0-1.29,0-2.57,.1-3.82,.48-5.08,1.55-8.48,5.84-8.55,11.12-.09,6.23-.09,12.46,.02,18.69,.1,5.85,5.4,11.05,11.27,11.12,6.38,.07,12.75,.1,19.13-.02,3.56-.07,6.49-1.7,8.77-4.45,1.86-2.26,2.62-4.91,2.64-7.79,.02-3.65,.03-7.3,0-10.95-.02-2.41,.11-4.82-.1-7.22-.51-6.07-5.39-10.77-11.47-10.94-3.14-.09-6.28-.02-9.42-.02Z"/>
      <path class="cls-1" d="M31.16,13.6c2.38,0,4.77-.02,7.15,0,4.94,.04,8.94,3.07,10.18,7.65,.25,.95,.33,1.92,.34,2.89,.02,4.74-.01,9.49,.01,14.23,.03,5.65-3.8,9.28-7.89,10.26-.95,.23-1.92,.32-2.89,.32-4.55,.02-9.1,.02-13.65,0-4.48-.02-7.86-1.91-9.92-5.96-.76-1.51-.98-3.16-.99-4.82-.03-4.6-.03-9.2,0-13.79,.02-4.13,1.67-7.38,5.33-9.49,1.63-.94,3.41-1.27,5.25-1.3,2.36-.04,4.72,0,7.08,0Zm11.53,18.07c.13-5.97-4.67-11.71-11.68-11.67-6.74,.04-11.58,5.25-11.61,11.62-.03,6.42,4.92,11.65,11.59,11.71,7,.06,11.85-5.77,11.7-11.66Zm-.3-13.32c-.97,.01-1.8,.85-1.81,1.83-.01,.97,.89,1.87,1.88,1.85,.96-.01,1.8-.88,1.79-1.85,0-1.03-.83-1.84-1.86-1.83Z"/>
      <path class="cls-1" d="M23.23,31.62c0-4.34,3.51-7.82,7.85-7.81,4.32,0,7.85,3.55,7.84,7.85-.01,4.28-3.6,7.85-7.88,7.84-4.32-.01-7.82-3.54-7.81-7.88Z"/>
    </g>
  </g>
</svg>