<?xml version="1.0" encoding="UTF-8"?>
<svg id="Layer_2" data-name="Layer 2" xmlns="http://www.w3.org/2000/svg" viewBox="0 0 62.34 62.34">
  <defs>
    <style>
      .cls-1 {
        fill: #fff;
      }
    </style>
  </defs>
  <g id="Layer_1-2" data-name="Layer 1">
    <path class="cls-1" d="M31.11,0C13.88,.02,0,13.94,0,31.2c0,17.24,13.92,31.14,31.17,31.14,17.3,0,31.2-13.93,31.17-31.26C62.31,13.86,48.37-.02,31.11,0Zm21.63,42.32c-.57,5.35-4.47,8.85-9.88,8.89-.24,0-.47,0-.52,0-3.31,.12-6.09-1.14-8.89-2.22-7.55-2.91-13.2-8.21-18.04-14.51-1.95-2.54-3.81-5.15-4.89-8.21-1.8-5.1-1.15-9.71,2.73-13.69,.98-1,2.13-1.47,3.49-1.45,.53,0,1.06,.11,1.59,.09,1.17-.05,1.81,.61,2.22,1.58,.93,2.21,1.69,4.51,2.81,6.62,1.14,2.14,.87,3.86-.74,5.53-.49,.51-.86,1.13-1.34,1.66-.65,.72-.67,1.42-.17,2.25,3.01,4.96,6.98,8.87,12.27,11.35,.38,.18,.75,.35,1.13,.53,2.06,.94,2.25,.9,3.67-.82,.83-1,1.64-2.03,2.43-3.06,.85-1.09,1.31-1.26,2.59-.74,2.93,1.21,5.74,2.69,8.58,4.09,.9,.45,1.04,1.24,.94,2.11Z"/>
  </g>
</svg>