<?xml version="1.0" encoding="UTF-8"?>
<svg id="Layer_2" data-name="Layer 2" xmlns="http://www.w3.org/2000/svg" viewBox="0 0 62.38 62.34">
  <defs>
    <style>
      .cls-1 {
        fill: #fff;
      }
    </style>
  </defs>
  <g id="Layer_1-2" data-name="Layer 1">
    <g>
      <path class="cls-1" d="M31.19,62.34C14.11,62.52-.06,48.2,0,31.07,.06,14.09,14.17-.07,31.34,0c16.97,.07,31.18,14.19,31.04,31.45-.13,16.89-14.17,31.07-31.18,30.88ZM13.25,20.98c-1.69,0-2.89,0-4.09,0-.15,0-.36,.02-.44,.12-.16,.2,.06,.35,.18,.48,.76,.84,1.48,1.72,2.31,2.49,.69,.65,.71,1.06,.02,1.79-3.09,3.26-3.86,8.34-1.97,12.38,3.16,6.77,11.54,8.82,17.44,4.24,.63-.49,1.01-.48,1.52,.12,.77,.91,1.63,1.76,2.42,2.66,.4,.45,.71,.45,1.1,0,.77-.87,1.61-1.69,2.35-2.59,.56-.67,.97-.66,1.66-.12,3.95,3.08,9.59,3.18,13.58,.29,5.67-4.11,6.46-12,1.69-17.12-.57-.61-.51-.96,.03-1.5,.81-.79,1.54-1.66,2.31-2.49,.15-.16,.42-.32,.35-.55-.1-.32-.44-.19-.68-.19-2.01-.01-4.01-.03-6.02,0-.78,.01-1.42-.19-2.09-.59-8.33-4.89-16.91-5.31-25.55-.99-2.15,1.07-4.17,1.98-6.1,1.57Z"/>
      <path class="cls-1" d="M27.56,33.49c0,4.36-3.65,8.03-7.96,7.98-4.26-.05-7.83-3.65-7.86-7.91-.02-4.36,3.5-7.77,7.88-7.91,3.85-.13,7.96,3.23,7.94,7.84Zm-3.96,.03c0-2.22-1.81-4.03-4-4-2.14,.03-3.9,1.84-3.9,4.01,0,2.21,1.8,4,4.01,3.99,2.15,0,3.89-1.8,3.89-4Z"/>
      <path class="cls-1" d="M42.71,25.68c3.57-.29,7.87,2.85,7.92,7.83,.04,4.3-3.64,7.97-7.9,7.95-4.31-.01-7.9-3.62-7.91-7.94,0-4.38,3.48-7.85,7.89-7.85Zm3.97,7.83c-.02-2.22-1.84-4.04-4.01-4-2.15,.04-3.88,1.82-3.89,4.01,0,2.19,1.75,3.98,3.89,3.99,2.21,0,4.02-1.79,4.01-4Z"/>
      <path class="cls-1" d="M31.25,32.3c-.43-.44-.31-.98-.44-1.46-1.03-3.71-3.37-6.33-6.72-8.13-.28-.15-.59-.27-.87-.43-.18-.1-.49-.13-.45-.43,.04-.27,.32-.3,.52-.38,3.17-1.17,6.44-1.63,9.81-1.34,1.91,.16,3.77,.54,5.57,1.2,.34,.12,.9,.11,.91,.56,.01,.38-.51,.43-.81,.57-3.05,1.48-5.34,3.71-6.69,6.85-.41,.95-.65,1.94-.83,2.99Z"/>
    </g>
  </g>
</svg>