<?xml version="1.0" encoding="UTF-8"?>
<svg id="Layer_2" data-name="Layer 2" xmlns="http://www.w3.org/2000/svg" viewBox="0 0 62.34 62.34">
  <defs>
    <style>
      .cls-1 {
        fill: #fff;
      }
    </style>
  </defs>
  <g id="Layer_1-2" data-name="Layer 1">
    <g>
      <path class="cls-1" d="M31.11,0C13.88,.02,0,13.94,0,31.2c0,17.24,13.92,31.14,31.17,31.14,17.3,0,31.2-13.93,31.17-31.26C62.31,13.86,48.37-.02,31.11,0Zm19.55,44.82c-3.65,4.32-8.35,6.9-13.95,7.78-.59,.09-1.18,.14-1.77,.2-.58,.06-1.15,.06-1.91,.08-3.51-.03-7.01-.86-10.29-2.55-.34-.18-.64-.21-1-.11-3.69,.98-7.39,1.95-11.08,2.91-.59,.16-.62,.13-.46-.47,.98-3.59,1.96-7.18,2.95-10.77,.11-.38,.08-.69-.11-1.05-1.65-3.04-2.55-6.28-2.75-9.74-.55-9.3,4.72-17.99,13-21.97,2.77-1.33,5.68-2.08,8.76-2.23,5.36-.26,10.25,1.13,14.58,4.28,5.03,3.65,8.18,8.56,9.23,14.71,1.2,7.08-.57,13.43-5.2,18.9Z"/>
      <path class="cls-1" d="M46.83,16.63c-4.94-4.92-10.88-6.68-17.69-5.29-4.18,.85-7.65,3.02-10.4,6.29-3.47,4.13-4.91,8.92-4.4,14.27,.29,3.02,1.31,5.81,2.98,8.35,.21,.33,.26,.62,.15,.99-.55,1.95-1.08,3.9-1.61,5.85-.15,.55-.12,.57,.42,.43,2-.52,4.01-1.03,6.01-1.57,.39-.11,.69-.07,1.04,.14,3.03,1.84,6.33,2.77,10.32,2.79,.56,.02,1.56-.07,2.54-.24,4.44-.74,8.2-2.74,11.18-6.12,3.93-4.45,5.47-9.67,4.64-15.53-.57-4.01-2.3-7.51-5.18-10.38Zm-1.9,19.48c-.31,2.9-2.42,4.8-5.35,4.82-.13,0-.26,0-.28,0-1.79,.07-3.3-.62-4.82-1.2-4.09-1.58-7.16-4.45-9.78-7.87-1.06-1.38-2.07-2.79-2.65-4.45-.98-2.77-.63-5.26,1.48-7.42,.53-.54,1.15-.8,1.89-.79,.29,0,.58,.06,.86,.05,.63-.03,.98,.33,1.2,.86,.5,1.2,.91,2.44,1.52,3.59,.62,1.16,.47,2.09-.4,3-.27,.28-.47,.61-.72,.9-.35,.39-.36,.77-.09,1.22,1.63,2.69,3.78,4.81,6.65,6.15,.2,.1,.41,.19,.61,.29,1.12,.51,1.22,.49,1.99-.44,.45-.54,.89-1.1,1.32-1.66,.46-.59,.71-.68,1.4-.4,1.59,.65,3.11,1.46,4.65,2.22,.49,.24,.56,.67,.51,1.14Z"/>
    </g>
  </g>
</svg>