<?xml version="1.0" encoding="utf-8"?>
<!-- Generator: Adobe Illustrator 27.0.0, SVG Export Plug-In . SVG Version: 6.00 Build 0)  -->
<svg version="1.1" id="Layer_1" xmlns="http://www.w3.org/2000/svg" xmlns:xlink="http://www.w3.org/1999/xlink" x="0px" y="0px"
	 viewBox="0 0 64 64" style="enable-background:new 0 0 64 64;" xml:space="preserve">
<style type="text/css">
	.st0{fill:#FFFFFF;}
</style>
<g>
	<path class="st0" d="M24.9,46.8c0-2.1,0-4.2,0-6.3c0-1-0.4-1.4-1.4-1.4c-1.7,0.1-3.4,0-5,0c-1.7,0-3-0.7-3.7-2.3s-0.3-3.1,0.9-4.4
		c4.4-4.4,8.7-8.7,13.1-13.1c2.1-2,4.5-2,6.5,0.1c4.3,4.3,8.6,8.7,13,13c1.3,1.2,1.7,2.7,1,4.3s-2,2.4-3.8,2.4c-1.6,0-3.3,0.1-4.9,0
		c-1.1,0-1.5,0.4-1.5,1.5c0,3.8,0,7.6,0,11.3c0,3.5-1.2,4.7-4.7,4.8c-1.9,0-3.7,0-5.6,0c-2.6-0.1-4-1.4-4-4
		C24.9,50.7,24.9,48.7,24.9,46.8z"/>
	<path class="st0" d="M31.9,14.6c-5.5,0-10.9,0-16.4,0c-0.7,0-1.4,0-2.1-0.2c-1.6-0.4-2.6-1.8-2.6-3.4s1-3.1,2.5-3.4
		c0.6-0.2,1.3-0.2,1.9-0.2c11.1,0,22.1,0,33.2,0c1.9,0,3.6,0.3,4.3,2.3c0.8,2.2-0.4,4.5-2.8,4.8c-0.6,0.1-1.3,0.1-2,0.1
		C42.7,14.6,37.3,14.6,31.9,14.6z"/>
</g>
</svg>
