<?xml version="1.0" encoding="utf-8"?>
<!-- Generator: Adobe Illustrator 27.0.0, SVG Export Plug-In . SVG Version: 6.00 Build 0)  -->
<svg version="1.1" id="Layer_1" xmlns="http://www.w3.org/2000/svg" xmlns:xlink="http://www.w3.org/1999/xlink" x="0px" y="0px"
	 viewBox="0 0 1000 1000" style="enable-background:new 0 0 1000 1000;" xml:space="preserve">
<style type="text/css">
	.st0{fill:#E1B02E;}
	.st1{filter:url(#Adobe_OpacityMaskFilter);}
	.st2{opacity:0.75;mask:url(#SVGID_1_);}
	.st3{fill:#FFFFFF;}
</style>
<g>
	<g>
		<g>
			<g>
				<path class="st0" d="M573.1,401.4c-0.8,6.9,0.9,13.4,2.2,20c0.8,4.1,3.1,5.7,7.4,5.3c4.4-0.4,5.7-3.2,5.8-6.6
					c0.2-7,0.5-14.1-0.4-21c-2.5-19.9,2.1-38.1,12.1-55c2.9-4.9,4.4-10,4-15.6c-0.1-1.3,0-3.1-0.8-3.7c-10-8-4.6-18.3-3.1-27
					c4.1-23-2.2-38.9-20.9-50.5c-2.3-1.4-4.3-2.9-6-4.9c-8.1-9-13.5-20.2-22.6-28.4c-1.6-1.4-0.9-3,0.5-3.8c6.3-3.8,2.7-7.1-0.9-9.1
					c-2.9-1.6-3.6-3.3-3.6-6.2c0-6.4,0-12.7,0-19.1c0-5.8,1.1-11.9-4.2-16.4c-1.5-1.3-1-3.7-1-5.7c-0.4-10.1,1.3-20.2-4.6-29.8
					c-2.4-3.8-0.5-10.3-0.6-15.6c-0.1-3.6-0.3-6.7-2.7-10.2c-3-4.3-1.4-10.6-1-16c0.2-2.5,0.1-4.8-0.6-7.1c-0.8-2.4-2.5-3.5-5-3.1
					c-2.8,0.4-3.4,2.1-3.4,4.6c0.1,6.5,1.9,13.7-1.2,19.5c-5.3,9.7-3.1,19.9-3.7,30c-0.1,1.3,0.1,3.2-1.2,3.5
					c-7.1,1.5-4.8,7-4.9,11.4c-0.2,4.8,0,9.7-0.2,14.5c-0.1,2.6-0.3,5.7-2.9,6.9c-5.1,2.3-5,6.6-4.9,11.1c0.1,6.4,0,12.7,0,19.1
					c0,3.5,0.2,6.6-3.7,8.9c-3.2,1.9-2.6,6.4-0.2,8.6c2.6,2.5,1.5,3.8-0.3,5.1c-3.4,2.3-5.1,6.2-8.4,8.8c-2.3,1.9-2.7,7.2-4.7,10.6
					c-3.2,5.3-6.9,10.6-12.5,13.1c-14.2,6.5-17.6,19.2-18.6,32.7c-0.8,11.1-1.4,22.3-0.3,33.4c0.2,1.6-0.1,4.1-1.1,5
					c-8.9,7.7-5.1,16.3-1.5,24.3c3.1,6.9,7.4,13.4,11.4,19.9c1.5,2.4,1.5,4.9,1.8,7.5c1.8,15.2-3.4,29.9-2.9,45
					c0.2,4.8,3.7,10,8.4,10.8c4.1,0.7,6.8-0.4,7-5.3c0.2-4.6,0.9-9.1,1.4-13.7c0.1-1.1,0.2-2.3,1.6-2.4c1.4-0.1,1.7,1.1,2.2,2.1
					c3.4,7.4,4.8,15.4,5.5,23.3c0.9,9.3-4.8,16.1-12.7,19.7c-14.6,6.5-30,10.9-46,12.5c-10.9,1.1-21.9,2.5-32.6,4.8
					c-13.1,2.8-25.7,20-27.4,33.6c-1.5,12.4-2.7,24.8-2.9,37.1c-0.5,29.7-7,58.7-9,88.2c-1,13.6-5.2,26.9-5.1,40.9
					c0.1,6.1,4.1,10.8,4.1,16.8c0,0.6,4.8,1.6,6.9,3.7c11.3,11.2,24.2,20.5,37.3,29.4c1.8,1.2,4.3,2.4,3.9,4.7
					c-0.4,2.2-3.3,1.5-5.1,2.3c-1.1,0.5-2.6,0.4-3.8,0.5c-19.8,0.5-39.6,0.4-59.3,1.7c-15.3,1-30.7,1.3-45.7,4.6
					c-0.6,0.1-1.3,0.1-1.9,0.2c-3.5,0.4-8.1-1.7-9.8,2.7c-1.8,4.5,0.4,9.8,3,12.9c11.1,13.4,24,25.1,40.7,31.3
					c2,0.8,4.2,1.4,6.4,1.3c16.5-0.5,33,0.8,49.2,3.2c10.3,1.5,20.6,3.8,30.8,6c10.8,2.4,20.7,7.2,32,8.5c15,1.8,30,3.8,45,5.8
					c4.3,0.6,8.7,0.2,13,0.4c32.9,1.1,65.6-0.3,97.8-7.4c7.8-1.7,16.2-2.6,23.4,0.1c5.7,2.1,12.3,4.3,16.5,9.7
					c4.8,6.2,9.6,7.1,15.4,1.9c11.9-10.7,25.1-15.9,41.2-12.7c3.5,0.7,8-0.6,11.2-2.3c14.9-8.1,30.6-12,47.5-10.1
					c6.2,0.7,12.2,2.5,18.3,4c4.7,1.2,9.5,1.2,14.2,0.3c6.2-1.2,12.1,0.1,17.6,2.4c4.6,1.9,6.8,0.7,8.1-3.9
					c3.8-13.4-0.6-24.6-8-35.7c-10.2-15.2-25.8-16.8-41.3-18c-17.9-1.4-35.9-2.5-53.9-3.4c-9.2-0.5-18.4-4.4-28-3.7
					c-2.2,0.2-3.2-1.2-2.8-3.4c0.5-2.1,0.7-4.4,1.8-6.3c8.3-14.9,14.5-31,24-45.2c3.7-5.5,4.1-11.6,3.5-18.2
					c-0.9-9.6-1.1-19.2-1.2-28.9c-0.3-24.7-2.8-49.3-4.5-73.9c-1-13.9-2.5-27.7-4.7-41.3c-3-18.6-13.4-32.9-31.9-39.8
					c-7.9-3-16-5.3-24.3-6.6c-4.9-0.8-9.8-1.6-13.5-5.8c-1.7-2-4.7-2.1-7.3-2.4c-8.2-1-16.2-3-24.3-4.5c-4.3-0.8-9.6-3.8-13.2,2.4
					c-1.1,1.9-3.8,0.6-5.2-0.7c-3.7-3.3-7.4-6.7-8.3-12.2C566.8,425.1,567.6,413,573.1,401.4z"/>
				<path class="st0" d="M609,810.8c-17,1.8-34,3.6-51,5.4c-3,0.3-6.1,0.4-9.1,0.5c-16.7,0.5-33.4,1.5-50.1,1.2
					c-27.3-0.4-54.5-3.4-80.8-11c-22.1-6.4-44.4-10.7-67.2-9.7c-30.4,1.4-51.6-13.1-69.4-35.8c-16.7-21.3-34.1-41.9-51.2-62.9
					c-12.3-15.1-22.1-31.6-29.8-49.6c-3.5-8.3-8.6-16.1-12.6-24.4c-9-18.5-11.8-38.8-17.4-58.4c-4.3-15-5.5-30.7-8-46
					c-3.5-21.5-4.1-43.5-3.4-65.5c1-28.2,4.7-56.1,10.9-83.6c2.1-9.3,6.2-18.1,8.2-27.4c3.7-16.9,11.7-32.1,18.7-47.5
					c10.1-22.2,21.1-44,38.7-61.7c7.1-7.1,12.2-16.3,18-24.8c3-4.4,5.4-9,10.4-11.5c0.7-0.4,1.5-1,1.9-1.8c5.3-10.8,17-15.5,23.8-25
					c17.6-24.4,43.3-39.1,67.1-55.9c5.9-4.2,13.8-5.8,20.8-8.4c6.9-2.5,13.7-6.3,20.6-9.2c16.6-7,32.7-15.4,49.9-20.3
					c11.5-3.2,23-6.8,34.8-9.5c19.9-4.6,39.7-8.4,60-10.1c38.1-3.2,75.8-1.2,113.2,7.8c16,3.9,31.9,7.9,47.1,13.8
					c12.4,4.8,24.4,10.6,35.9,17.6c12.2,7.4,25.4,13.1,37.3,20.9c24.3,16.1,47.4,33.7,68.2,54.5c10.8,10.8,21.8,21.3,31.7,32.9
					c7.7,8.9,14.7,18.4,22.2,27.5c2.4,2.9,0.9,8.4,6.3,9.3c1.5,0.3,2.8,1.2,4.1-0.1c1.3-1.3,0.4-2.4-0.1-3.5
					c-3.1-6.1-5.3-12.9-9.4-18.2c-10.2-13.1-18.7-27.3-29.1-40.3c-15-18.8-32.9-34.3-50.5-50.2c-11-10-21.5-20.6-33.5-29.4
					c-17.2-12.6-35.3-23.4-53.7-34.2c-19.1-11.2-39.6-18.5-60.1-25.6c-17.1-5.9-34.9-10.1-52.9-13.1c-12.6-2.1-25.3-3.1-37.6-6.7
					c-0.8-0.2-1.7-0.6-2.5-0.5c-16.3,0.6-32.4-3.4-48.6-2.5c-25.3,1.4-50.5,3-75.6,7.1c-27.8,4.5-54.3,13-80.7,22.1
					c-15.6,5.4-30.5,12.2-45.4,19.3c-8,3.8-15.3,8.8-23,13c-8.2,4.5-16.9,8.5-23.8,14.6c-10.6,9.3-22.2,17.3-32.6,27
					c-17.7,16.4-34.3,33.8-51.2,50.9c-10.5,10.7-19.1,23.1-27.7,35.4c-10.6,15.3-18.8,31.9-28.6,47.5c-4.1,6.6-4.3,15.9-12.5,19.9
					c1.4,7.4-3.9,12.5-6.2,18.6c-8.4,22-16,44.4-20.8,67.3c-3.9,18.4-8.2,36.9-8.5,56.1c-0.2,13.5-3.2,26.9-3.4,40.4
					c-0.4,25.4,3.5,50.5,7.9,75.5c2.5,14.4,4.2,29,7.5,43.2c2.8,12.1,7.2,23.8,10.8,35.6c5.3,17,9.7,34.3,16.2,50.8
					c5.5,14.2,14.3,27.2,19.9,41.3c5,12.7,12.6,23.6,19.8,34.8c11.7,18.2,22.6,37,35.8,54.1c12.8,16.5,25.9,32.8,39.9,48.3
					c15.1,16.7,31.3,32.3,48.6,46.6c25.9,21.4,52,42.6,83,56.8c10.8,4.9,20.2,12.8,31.1,17.7c24.5,10.9,49.5,19.5,77,19
					c11-0.2,22.1,2.2,33.1,0.1c18.3-3.4,36.6-6.4,54.4-12.2c21.2-6.9,40.7-17.2,60.2-27.7c19.4-10.5,38.9-20.7,58.1-31.6
					c3.1-1.8,6.1-4.6,8.8-7.3c17.3-17.9,37.4-32.6,55.1-50c12.1-11.9,26.6-21,37.9-33.7c1.9-2.1,3.8-4.1,4.7-7
					c1.3-4.6,0.2-7.8-4.4-9.4c-10-3.6-19.9-3.8-29.4,1.6c-13.4,7.6-26.7,15.3-40.2,22.7c-22.9,12.6-45.6,25.6-68.9,37.5
					c-20,10.2-41.1,17.6-63.4,21.5c-21,3.7-42,6.4-63.3,6.4c-9.2,0-18-2-26.8-4.5c-2.4-0.7-4.6-2.5-6.6-4.1c-5.2-4.4-5.2-9,0.5-12.9
					c8-5.5,17.2-8.3,26.5-10.4c20.4-4.7,41-8.9,61.4-13.4c9.9-2.2,19.8-4.2,29.2-7.9c8-3.1,12.4-9.3,14.2-17.3
					c1.3-5.5-2.4-9.1-9.3-9.8c-1.9-0.2-3.9-0.1-5.9-0.1c-1.7,0-3.5,0-5.2,0C609,811.2,609,811,609,810.8z"/>
			</g>
		</g>
	</g>
	<defs>
		<filter id="Adobe_OpacityMaskFilter" filterUnits="userSpaceOnUse" x="90.6" y="17.9" width="818.8" height="964.2">
			
				<feColorMatrix  type="matrix" values="-1 0 0 0 1  0 -1 0 0 1  0 0 -1 0 1  0 0 0 1 0" color-interpolation-filters="sRGB" result="source"/>
		</filter>
	</defs>
	<mask maskUnits="userSpaceOnUse" x="90.6" y="17.9" width="818.8" height="964.2" id="SVGID_1_">
		<g class="st1">
			<image style="overflow:visible;" width="824" height="970" xlink:href="BEFE0DC8.jpg"  transform="matrix(1 0 0 1 88 15)">
			</image>
		</g>
	</mask>
	<g class="st2">
		<g>
			<g>
				<path class="st3" d="M573.1,401.4c-0.8,6.9,0.9,13.4,2.2,20c0.8,4.1,3.1,5.7,7.4,5.3c4.4-0.4,5.7-3.2,5.8-6.6
					c0.2-7,0.5-14.1-0.4-21c-2.5-19.9,2.1-38.1,12.1-55c2.9-4.9,4.4-10,4-15.6c-0.1-1.3,0-3.1-0.8-3.7c-10-8-4.6-18.3-3.1-27
					c4.1-23-2.2-38.9-20.9-50.5c-2.3-1.4-4.3-2.9-6-4.9c-8.1-9-13.5-20.2-22.6-28.4c-1.6-1.4-0.9-3,0.5-3.8c6.3-3.8,2.7-7.1-0.9-9.1
					c-2.9-1.6-3.6-3.3-3.6-6.2c0-6.4,0-12.7,0-19.1c0-5.8,1.1-11.9-4.2-16.4c-1.5-1.3-1-3.7-1-5.7c-0.4-10.1,1.3-20.2-4.6-29.8
					c-2.4-3.8-0.5-10.3-0.6-15.6c-0.1-3.6-0.3-6.7-2.7-10.2c-3-4.3-1.4-10.6-1-16c0.2-2.5,0.1-4.8-0.6-7.1c-0.8-2.4-2.5-3.5-5-3.1
					c-2.8,0.4-3.4,2.1-3.4,4.6c0.1,6.5,1.9,13.7-1.2,19.5c-5.3,9.7-3.1,19.9-3.7,30c-0.1,1.3,0.1,3.2-1.2,3.5
					c-7.1,1.5-4.8,7-4.9,11.4c-0.2,4.8,0,9.7-0.2,14.5c-0.1,2.6-0.3,5.7-2.9,6.9c-5.1,2.3-5,6.6-4.9,11.1c0.1,6.4,0,12.7,0,19.1
					c0,3.5,0.2,6.6-3.7,8.9c-3.2,1.9-2.6,6.4-0.2,8.6c2.6,2.5,1.5,3.8-0.3,5.1c-3.4,2.3-5.1,6.2-8.4,8.8c-2.3,1.9-2.7,7.2-4.7,10.6
					c-3.2,5.3-6.9,10.6-12.5,13.1c-14.2,6.5-17.6,19.2-18.6,32.7c-0.8,11.1-1.4,22.3-0.3,33.4c0.2,1.6-0.1,4.1-1.1,5
					c-8.9,7.7-5.1,16.3-1.5,24.3c3.1,6.9,7.4,13.4,11.4,19.9c1.5,2.4,1.5,4.9,1.8,7.5c1.8,15.2-3.4,29.9-2.9,45
					c0.2,4.8,3.7,10,8.4,10.8c4.1,0.7,6.8-0.4,7-5.3c0.2-4.6,0.9-9.1,1.4-13.7c0.1-1.1,0.2-2.3,1.6-2.4c1.4-0.1,1.7,1.1,2.2,2.1
					c3.4,7.4,4.8,15.4,5.5,23.3c0.9,9.3-4.8,16.1-12.7,19.7c-14.6,6.5-30,10.9-46,12.5c-10.9,1.1-21.9,2.5-32.6,4.8
					c-13.1,2.8-25.7,20-27.4,33.6c-1.5,12.4-2.7,24.8-2.9,37.1c-0.5,29.7-7,58.7-9,88.2c-1,13.6-5.2,26.9-5.1,40.9
					c0.1,6.1,4.1,10.8,4.1,16.8c0,0.6,4.8,1.6,6.9,3.7c11.3,11.2,24.2,20.5,37.3,29.4c1.8,1.2,4.3,2.4,3.9,4.7
					c-0.4,2.2-3.3,1.5-5.1,2.3c-1.1,0.5-2.6,0.4-3.8,0.5c-19.8,0.5-39.6,0.4-59.3,1.7c-15.3,1-30.7,1.3-45.7,4.6
					c-0.6,0.1-1.3,0.1-1.9,0.2c-3.5,0.4-8.1-1.7-9.8,2.7c-1.8,4.5,0.4,9.8,3,12.9c11.1,13.4,24,25.1,40.7,31.3
					c2,0.8,4.2,1.4,6.4,1.3c16.5-0.5,33,0.8,49.2,3.2c10.3,1.5,20.6,3.8,30.8,6c10.8,2.4,20.7,7.2,32,8.5c15,1.8,30,3.8,45,5.8
					c4.3,0.6,8.7,0.2,13,0.4c32.9,1.1,65.6-0.3,97.8-7.4c7.8-1.7,16.2-2.6,23.4,0.1c5.7,2.1,12.3,4.3,16.5,9.7
					c4.8,6.2,9.6,7.1,15.4,1.9c11.9-10.7,25.1-15.9,41.2-12.7c3.5,0.7,8-0.6,11.2-2.3c14.9-8.1,30.6-12,47.5-10.1
					c6.2,0.7,12.2,2.5,18.3,4c4.7,1.2,9.5,1.2,14.2,0.3c6.2-1.2,12.1,0.1,17.6,2.4c4.6,1.9,6.8,0.7,8.1-3.9
					c3.8-13.4-0.6-24.6-8-35.7c-10.2-15.2-25.8-16.8-41.3-18c-17.9-1.4-35.9-2.5-53.9-3.4c-9.2-0.5-18.4-4.4-28-3.7
					c-2.2,0.2-3.2-1.2-2.8-3.4c0.5-2.1,0.7-4.4,1.8-6.3c8.3-14.9,14.5-31,24-45.2c3.7-5.5,4.1-11.6,3.5-18.2
					c-0.9-9.6-1.1-19.2-1.2-28.9c-0.3-24.7-2.8-49.3-4.5-73.9c-1-13.9-2.5-27.7-4.7-41.3c-3-18.6-13.4-32.9-31.9-39.8
					c-7.9-3-16-5.3-24.3-6.6c-4.9-0.8-9.8-1.6-13.5-5.8c-1.7-2-4.7-2.1-7.3-2.4c-8.2-1-16.2-3-24.3-4.5c-4.3-0.8-9.6-3.8-13.2,2.4
					c-1.1,1.9-3.8,0.6-5.2-0.7c-3.7-3.3-7.4-6.7-8.3-12.2C566.8,425.1,567.6,413,573.1,401.4z"/>
				<path class="st3" d="M609,810.8c-17,1.8-34,3.6-51,5.4c-3,0.3-6.1,0.4-9.1,0.5c-16.7,0.5-33.4,1.5-50.1,1.2
					c-27.3-0.4-54.5-3.4-80.8-11c-22.1-6.4-44.4-10.7-67.2-9.7c-30.4,1.4-51.6-13.1-69.4-35.8c-16.7-21.3-34.1-41.9-51.2-62.9
					c-12.3-15.1-22.1-31.6-29.8-49.6c-3.5-8.3-8.6-16.1-12.6-24.4c-9-18.5-11.8-38.8-17.4-58.4c-4.3-15-5.5-30.7-8-46
					c-3.5-21.5-4.1-43.5-3.4-65.5c1-28.2,4.7-56.1,10.9-83.6c2.1-9.3,6.2-18.1,8.2-27.4c3.7-16.9,11.7-32.1,18.7-47.5
					c10.1-22.2,21.1-44,38.7-61.7c7.1-7.1,12.2-16.3,18-24.8c3-4.4,5.4-9,10.4-11.5c0.7-0.4,1.5-1,1.9-1.8c5.3-10.8,17-15.5,23.8-25
					c17.6-24.4,43.3-39.1,67.1-55.9c5.9-4.2,13.8-5.8,20.8-8.4c6.9-2.5,13.7-6.3,20.6-9.2c16.6-7,32.7-15.4,49.9-20.3
					c11.5-3.2,23-6.8,34.8-9.5c19.9-4.6,39.7-8.4,60-10.1c38.1-3.2,75.8-1.2,113.2,7.8c16,3.9,31.9,7.9,47.1,13.8
					c12.4,4.8,24.4,10.6,35.9,17.6c12.2,7.4,25.4,13.1,37.3,20.9c24.3,16.1,47.4,33.7,68.2,54.5c10.8,10.8,21.8,21.3,31.7,32.9
					c7.7,8.9,14.7,18.4,22.2,27.5c2.4,2.9,0.9,8.4,6.3,9.3c1.5,0.3,2.8,1.2,4.1-0.1c1.3-1.3,0.4-2.4-0.1-3.5
					c-3.1-6.1-5.3-12.9-9.4-18.2c-10.2-13.1-18.7-27.3-29.1-40.3c-15-18.8-32.9-34.3-50.5-50.2c-11-10-21.5-20.6-33.5-29.4
					c-17.2-12.6-35.3-23.4-53.7-34.2c-19.1-11.2-39.6-18.5-60.1-25.6c-17.1-5.9-34.9-10.1-52.9-13.1c-12.6-2.1-25.3-3.1-37.6-6.7
					c-0.8-0.2-1.7-0.6-2.5-0.5c-16.3,0.6-32.4-3.4-48.6-2.5c-25.3,1.4-50.5,3-75.6,7.1c-27.8,4.5-54.3,13-80.7,22.1
					c-15.6,5.4-30.5,12.2-45.4,19.3c-8,3.8-15.3,8.8-23,13c-8.2,4.5-16.9,8.5-23.8,14.6c-10.6,9.3-22.2,17.3-32.6,27
					c-17.7,16.4-34.3,33.8-51.2,50.9c-10.5,10.7-19.1,23.1-27.7,35.4c-10.6,15.3-18.8,31.9-28.6,47.5c-4.1,6.6-4.3,15.9-12.5,19.9
					c1.4,7.4-3.9,12.5-6.2,18.6c-8.4,22-16,44.4-20.8,67.3c-3.9,18.4-8.2,36.9-8.5,56.1c-0.2,13.5-3.2,26.9-3.4,40.4
					c-0.4,25.4,3.5,50.5,7.9,75.5c2.5,14.4,4.2,29,7.5,43.2c2.8,12.1,7.2,23.8,10.8,35.6c5.3,17,9.7,34.3,16.2,50.8
					c5.5,14.2,14.3,27.2,19.9,41.3c5,12.7,12.6,23.6,19.8,34.8c11.7,18.2,22.6,37,35.8,54.1c12.8,16.5,25.9,32.8,39.9,48.3
					c15.1,16.7,31.3,32.3,48.6,46.6c25.9,21.4,52,42.6,83,56.8c10.8,4.9,20.2,12.8,31.1,17.7c24.5,10.9,49.5,19.5,77,19
					c11-0.2,22.1,2.2,33.1,0.1c18.3-3.4,36.6-6.4,54.4-12.2c21.2-6.9,40.7-17.2,60.2-27.7c19.4-10.5,38.9-20.7,58.1-31.6
					c3.1-1.8,6.1-4.6,8.8-7.3c17.3-17.9,37.4-32.6,55.1-50c12.1-11.9,26.6-21,37.9-33.7c1.9-2.1,3.8-4.1,4.7-7
					c1.3-4.6,0.2-7.8-4.4-9.4c-10-3.6-19.9-3.8-29.4,1.6c-13.4,7.6-26.7,15.3-40.2,22.7c-22.9,12.6-45.6,25.6-68.9,37.5
					c-20,10.2-41.1,17.6-63.4,21.5c-21,3.7-42,6.4-63.3,6.4c-9.2,0-18-2-26.8-4.5c-2.4-0.7-4.6-2.5-6.6-4.1c-5.2-4.4-5.2-9,0.5-12.9
					c8-5.5,17.2-8.3,26.5-10.4c20.4-4.7,41-8.9,61.4-13.4c9.9-2.2,19.8-4.2,29.2-7.9c8-3.1,12.4-9.3,14.2-17.3
					c1.3-5.5-2.4-9.1-9.3-9.8c-1.9-0.2-3.9-0.1-5.9-0.1c-1.7,0-3.5,0-5.2,0C609,811.2,609,811,609,810.8z"/>
			</g>
		</g>
	</g>
</g>
</svg>
