<?xml version="1.0" encoding="UTF-8"?>
<svg id="Layer_2" data-name="Layer 2" xmlns="http://www.w3.org/2000/svg" viewBox="0 0 147.09 171.75">
  <defs>
    <style>
      .cls-1 {
        fill: #fff;
      }
    </style>
  </defs>
  <g id="Layer_1-2" data-name="Layer 1">
    <g>
      <path class="cls-1" d="M69.92,68.19c-.21,1.67-.37,2.93-.52,4.17-1.42,.18-1.92-.04-2.02-1.3-.1-1.33,.18-2.68,.21-4.03,.05-1.78,.3-3.62-.07-5.31-.3-1.38-1.51-2.54-2.07-3.9-.42-1-.47-2.16-.64-3.26-.03-.17,.15-.52,.3-.56,1.05-.29,.75-1,.71-1.77-.15-2.85-.37-5.74,.69-8.47,.32-.82,.96-1.68,1.7-2.13,1.41-.87,2.51-1.95,3.39-3.33,.86-1.34,1.79-2.63,2.69-3.93-.27-.43-.59-.91-1.02-1.58,1.44-.09,1.44-.88,1.41-1.76-.04-1.37-.05-2.75,.01-4.12,.02-.35,.26-.9,.53-.99,.81-.28,.91-.81,.87-1.54-.04-.9,0-1.8-.01-2.71,0-.73-.17-1.51,.83-1.81,.16-.05,.26-.44,.3-.69,.05-.35,0-.71,.02-1.06,.1-1.29-.1-2.54,.49-3.86,.47-1.06,.15-2.47,.28-3.71,.03-.36,.38-.68,.58-1.02,.19,.33,.51,.64,.54,.98,.08,.86-.04,1.73,.05,2.58,.05,.49,.36,.95,.52,1.44,.12,.36,.27,.73,.29,1.09,.04,.98,0,1.96,.02,2.94,0,.27-.05,.66,.1,.79,1.41,1.22,.7,2.84,.84,4.28,.08,.81-.1,1.63,.71,2.24,.23,.17,.24,.72,.24,1.09,.03,1.41,0,2.82,0,4.24,0,.64-.19,1.37,.82,1.52,.18,.03,.3,.48,.49,.81-.41,.24-.72,.42-1.1,.64,.68,.9,1.27,1.8,1.98,2.59,1.46,1.58,2.4,3.57,4.42,4.75,1.85,1.08,3.13,2.9,3.04,5.23-.08,2.1-.33,4.2-.56,6.29-.07,.61-.01,.91,.57,1.3,.42,.28,.65,1.11,.63,1.68-.01,.58-.36,1.19-.67,1.72-1.49,2.54-2.49,5.23-2.48,8.19,0,1.71,.29,3.42,.32,5.13,0,.46-.35,1.19-.73,1.35-.79,.34-1.37-.13-1.39-1.01-.04-1.28-.01-2.57-.01-3.85-.11-.04-.22-.08-.33-.13-.26,.5-.61,.98-.78,1.51-.61,1.93-.88,3.92-.38,5.89,.21,.8,.85,1.53,1.43,2.17,.45,.49,1.05,.81,1.67-.02,.19-.25,.87-.26,1.3-.19,1.81,.27,3.61,.61,5.42,.93,.04,0,.09,0,.11,.03,2.2,1.79,5.11,1.5,7.56,2.59,3.64,1.62,5.39,4.42,5.75,8.27,.26,2.8,.6,5.58,.86,8.38,.16,1.75,.27,3.51,.35,5.26,.18,3.79,.33,7.57,.48,11.36,.04,1.03-.21,1.93-.76,2.87-1.54,2.63-2.99,5.31-4.3,8.06-.73,1.52-.49,1.64,1.19,1.73,1.08,.06,2.14,.35,3.21,.52,.69,.11,1.38,.27,2.07,.29,4.18,.09,8.37,.11,12.47,1.07,3.22,.75,5.79,4.87,5.19,8.09-.23,1.23-.48,1.35-1.66,1-.67-.2-1.39-.44-2.06-.37-2.18,.25-4.27-.1-6.38-.62-2.49-.62-4.89-.05-7.2,.89-1.82,.74-3.59,1.49-5.65,1.18-1.72-.26-3.21,.49-4.57,1.49-.51,.37-.96,.91-1.52,1.07-.54,.16-1.47,.15-1.74-.18-2-2.46-4.68-2.82-7.43-2.21-7.03,1.56-14.14,1.66-21.24,1.17-3.89-.27-7.77-.92-11.56-2.15-4.09-1.32-8.41-1.95-12.72-1.72-3.88,.21-6.77-1.48-9.41-3.96-1.17-1.1-2.32-2.22-2.47-4.13,7.64-1.43,15.38-1.19,23.06-1.65,.05-.12,.09-.25,.14-.37-.43-.4-.84-.84-1.31-1.2-2.4-1.88-4.83-3.7-7.2-5.61-1.61-1.3-1.58-3.19-1.36-4.98,.73-6.11,1.61-12.21,2.33-18.32,.34-2.86,.49-5.75,.63-8.63,.22-4.73,4.38-6.85,7.92-7.14,3.48-.28,6.89-.9,10.17-2.11,3.01-1.11,3.93-2.94,3.15-6.08-.18-.72-.33-1.46-.61-2.14-.16-.39-.58-.68-1.11-1.28Z"/>
      <path class="cls-1" d="M146.88,39.79c-.15-.1-.34-.16-.43-.29-2.64-3.79-5.54-7.37-8.85-10.61-4.64-4.56-9.61-8.72-15.18-12.11-2.17-1.32-4.52-2.33-6.72-3.61-6.54-3.81-13.79-5.31-21.13-6.32-3.24-.45-6.56-.54-9.83-.41-6.22,.23-12.41,1.05-18.29,3.11-6.26,2.19-12.5,4.52-18.51,7.32-3.11,1.45-5.79,3.94-8.48,6.16-1.94,1.6-3.5,3.64-5.38,5.31-2.7,2.4-4.85,5.21-7,8.08-2.2,2.93-4.68,5.63-6.42,8.9-3.66,6.88-6.47,14.06-7.67,21.78-.51,3.27-.61,6.6-1,9.89-.52,4.43-.07,8.83,.66,13.17,.84,5.03,2,10.01,3.22,14.96,.45,1.83,1.38,3.57,2.25,5.27,1.89,3.68,3.54,7.5,6.22,10.72,2.37,2.86,4.73,5.72,7.12,8.56,1.53,1.83,3.01,3.7,4.66,5.42,2.24,2.35,4.86,4.04,8.3,3.99,5.87-.09,11.52,1.23,17.2,2.55,5.34,1.24,10.81,1.61,16.31,1.2,4.47-.34,8.95-.68,13.43-.94,1.49-.09,3,.02,4.49,.18,.8,.09,.97,.66,.73,1.49-.42,1.49-1.4,2.38-2.78,2.76-2.64,.71-5.32,1.25-7.97,1.9-3.75,.92-7.51,1.84-11.23,2.86-1.1,.3-2.44,.78-2.35,2.23,.09,1.43,1.42,2.02,2.57,2.21,2.26,.38,4.59,.78,6.85,.6,3.83-.31,7.65-.95,11.44-1.68,4.34-.83,8.27-2.8,12.12-4.92,5.58-3.08,11.15-6.17,16.75-9.21,1.58-.86,3.26-.65,4.9-.11,.63,.21,.95,.69,.53,1.26-.73,.99-1.47,2.02-2.38,2.83-3.52,3.16-7.14,6.2-10.66,9.36-3.82,3.43-7.77,6.64-12.46,8.86-3.39,1.61-6.63,3.51-10.03,5.11-3.89,1.84-8.02,2.93-12.28,3.66-2.54,.44-5.03,.46-7.58,.43-6.01-.07-11.51-1.8-16.71-4.7-2.42-1.35-4.84-2.71-7.27-4.05-4.53-2.49-8.27-6.02-12.25-9.23-5.08-4.1-9.42-8.92-13.29-14.15-2.69-3.63-5.01-7.55-7.69-11.19-3.2-4.35-4.99-9.42-7.4-14.16-1.2-2.36-1.5-5.15-2.45-7.65-2.31-6.12-3.17-12.55-4.17-18.94-.6-3.78-1.01-7.58-.69-11.43,.56-6.73,1.38-13.41,3.33-19.92,2.97-9.9,7.75-18.87,14.26-26.84,2.96-3.62,6.49-6.77,9.87-10.03,1.88-1.81,3.88-3.52,5.97-5.09,5.84-4.38,12.34-7.48,19.24-9.82,6.13-2.08,12.38-3.47,18.83-4.11,4.89-.48,9.79-.66,14.63-.09,8.19,.97,16.33,2.49,23.95,5.79,6.81,2.95,13.14,6.73,18.62,11.82,2.32,2.15,4.81,4.12,7.07,6.34,1.95,1.91,3.84,3.93,5.45,6.12,1.97,2.67,3.63,5.56,5.42,8.36,.16,.25,.23,.55,.34,.82-.07,.06-.14,.12-.21,.18Z"/>
    </g>
  </g>
</svg>